<?xml version="1.0" standalone="no"?>
<!DOCTYPE svg PUBLIC "-//W3C//DTD SVG 1.1//EN" "http://www.w3.org/Graphics/SVG/1.1/DTD/svg11.dtd" >
<svg xmlns="http://www.w3.org/2000/svg">
<metadata>Generated by IcoMoon</metadata>
<defs>
<font id="icomoon" horiz-adv-x="1024">
<font-face units-per-em="1024" ascent="960" descent="-64" />
<missing-glyph horiz-adv-x="1024" />
<glyph unicode="&#x20;" d="" horiz-adv-x="512" />
<glyph unicode="&#xe600;" d="M94.875 958.364c0-0.818-3.599-1.636-8.179-1.636-4.417 0-8.179-0.654-8.179-1.636 0-0.818-2.454-1.636-5.562-1.636s-6.216-0.654-6.707-1.636c-0.491-0.818-2.454-1.636-4.089-1.636-3.435 0-33.206-14.558-34.024-16.685-0.327-0.654-1.636-1.309-2.944-1.309s-2.29-0.654-2.29-1.636c0-0.818-1.145-1.636-2.454-1.636s-2.454-0.654-2.454-1.636c0-0.818-0.818-1.636-1.799-1.636s-3.762-2.127-6.052-4.58c-2.454-2.617-5.725-5.071-7.361-5.725-3.272-1.145-2.29-2.617 11.941-17.503 4.089-4.253 9.651-10.305 12.596-13.741l5.071-6.052 6.216 5.725c3.435 3.272 6.543 5.562 6.87 5.071 0.327-0.327 1.636 0.164 2.944 1.309 1.145 1.145 3.108 2.781 4.253 3.599 2.29 1.799 16.194 8.506 21.756 10.633 1.799 0.654 5.398 2.127 7.852 3.108s7.034 1.799 9.815 1.799c2.944 0 6.216 0.818 7.197 1.799s8.179 1.472 19.466 0.981c17.503-0.654 20.938-1.145 34.188-4.744 7.034-1.799 26.663-10.796 29.608-13.577 0.981-0.818 3.599-2.781 5.562-4.089 2.127-1.309 6.216-4.58 9.16-7.034 3.108-2.617 6.216-4.417 7.034-4.089 2.781 0.981 31.243 29.281 31.243 30.916 0 3.762-27.972 26.009-32.388 26.009-0.981 0-1.963 0.654-2.29 1.309-0.654 1.799-20.12 10.796-30.753 14.231-4.907 1.472-10.305 3.435-11.778 4.253-1.636 0.818-6.216 1.472-10.305 1.472s-7.361 0.818-7.361 1.636c0 0.981-8.67 1.636-22.901 1.636s-22.901-0.654-22.901-1.636zM110.415 889.825c-1.799-0.818-6.216-1.636-9.651-1.636-14.231-0.327-39.259-11.614-55.78-25.355l-4.907-4.089 6.543-6.87c15.376-16.194 13.741-15.213 18.157-12.923 2.127 1.309 3.926 2.781 3.926 3.272 0 0.654 2.29 2.127 4.907 3.272 2.781 1.145 4.907 2.617 4.907 3.272s1.636 1.636 3.762 2.127c1.963 0.491 8.015 2.454 13.25 4.253 13.904 4.907 33.043 4.744 48.583-0.654 6.707-2.127 12.268-4.744 12.596-5.725 0.327-0.818 1.472-1.636 2.617-1.636s3.435-1.309 5.235-2.944c1.799-1.636 5.071-4.253 7.197-5.725 4.089-2.454 4.253-2.454 14.722 7.688l10.796 10.142-3.435 3.272c-9.324 9.324-29.117 21.919-34.515 21.919-1.309 0-2.29 0.654-2.29 1.472s-2.781 1.963-6.052 2.454c-3.435 0.654-9.815 1.799-14.395 2.617-15.213 2.617-22.901 3.272-26.173 1.799zM102.236 830.119c-10.96-2.781-18.975-6.38-27.808-12.432l-7.525-5.235 2.781-4.253c1.472-2.29 4.58-6.052 6.707-8.179l3.926-3.926 2.944 3.435c1.636 1.963 4.253 3.435 5.725 3.435s2.617 0.654 2.617 1.472c0 1.799 15.213 6.38 23.555 7.197 12.105 1.145 30.426-5.071 37.459-12.596 2.781-3.108 2.944-3.108 8.015 1.636 2.944 2.617 6.216 5.562 7.361 6.707 3.108 2.781 2.617 4.417-2.781 7.525-2.617 1.636-5.725 3.762-6.87 4.907-6.052 5.889-28.299 12.596-41.385 12.432-3.599 0-10.142-0.981-14.722-2.127zM98.965 786.28c-0.491-1.145-0.981-13.904-1.145-28.135l-0.491-26.009-7.361-2.617c-4.089-1.472-7.525-3.108-7.852-3.762-0.327-0.818-1.636-1.309-2.944-1.309-3.272 0-5.725-1.963-18.975-15.213-10.469-10.305-19.302-24.046-19.302-29.771 0-1.309-0.654-2.454-1.472-2.454-1.636 0-2.781-5.725-5.235-25.845-2.454-20.774-1.309-642.699 1.309-648.097 0.981-2.29 2.781-7.525 3.926-11.778 1.309-4.417 2.781-7.852 3.435-7.852s1.309-1.472 1.309-3.108c0-1.799 0.491-3.435 1.309-3.762 0.654-0.164 3.272-3.762 6.052-7.852 5.889-8.997 13.904-16.521 21.429-20.611 3.108-1.636 5.562-3.599 5.562-4.253 0-0.818 1.472-1.309 3.272-1.309s3.272-0.654 3.272-1.636c0-0.818 2.29-1.636 4.907-1.636 2.781 0 4.907-0.654 4.907-1.636 0-1.145 53.981-1.636 158.671-1.636s158.671 0.491 158.671 1.636c0 0.981 2.29 1.636 4.907 1.636 2.781 0 4.907 0.818 4.907 1.636 0 0.981 1.145 1.636 2.617 1.636 6.707 0 28.953 20.938 34.679 32.388 1.472 2.781 3.108 5.235 3.926 5.235 0.654 0 1.309 1.472 1.309 3.108 0 1.799 0.818 3.762 1.636 4.253 0.981 0.491 1.636 2.781 1.636 5.071 0 2.127 0.818 3.926 1.636 3.926 0.981 0 1.636 3.272 1.636 7.361s0.818 7.361 1.636 7.361c1.145 0 1.636 109.107 1.636 323.885s-0.491 323.885-1.636 323.885c-0.818 0-1.636 1.963-1.636 4.58 0 6.87-8.67 28.626-13.086 33.043-0.491 0.491-3.435 4.089-6.543 8.179s-6.87 8.342-8.506 9.488c-1.472 1.145-3.762 2.944-4.907 4.253-1.145 1.145-7.197 4.58-13.413 7.525l-11.45 5.398-134.952-0.164c-95.203-0.164-135.606 0.327-137.079 1.636-1.636 1.309-2.127 8.342-2.127 28.463v26.827h-19.629c-14.231 0-19.957-0.491-20.447-1.963zM435.118 363.921c0-159.652-0.491-291.333-0.981-292.805-0.981-2.29-18.321-2.617-179.773-2.617-168.976 0-178.955 0.164-179.773 2.944-0.981 3.272-0.818 579.558 0.164 581.521 0.327 0.654 81.626 1.145 180.59 1.145h179.773v-290.188zM260.907 43.962c0.491-0.818 2.454-1.636 4.089-1.636 3.272 0 15.867-11.45 19.302-17.503 0.981-2.127 1.963-8.179 1.963-13.577s-0.981-11.45-1.963-13.577c-3.762-6.543-16.358-17.503-20.284-17.503-1.963 0-4.253-0.654-4.744-1.636-2.127-3.435-26.99 0-26.99 3.599 0 0.818-1.145 1.309-2.617 1.309-2.944 0-4.58 1.636-11.287 10.469-4.253 5.725-4.907 7.852-4.907 17.339s0.654 11.614 4.907 17.339c6.216 8.342 7.197 9.16 13.086 11.941 2.781 1.145 6.052 2.781 7.361 3.599 3.435 1.799 20.938 1.799 22.083-0.164z" horiz-adv-x="474" />
<glyph unicode="&#xe601;" d="M458.019 956.728c-50.382-6.052-80.971-13.413-132.662-32.061-15.704-5.725-60.033-27.645-78.027-38.604-18.975-11.614-51.691-34.679-57.58-40.567-0.491-0.491-7.034-6.052-14.722-12.596-14.231-11.941-32.225-29.935-50.219-50.382-30.753-34.842-59.379-80.153-79.826-125.955-5.725-12.923-6.543-14.722-10.633-24.537-8.67-21.265-20.447-63.632-25.355-91.113-4.907-26.336-8.997-69.357-8.997-92.912 0-23.065 3.926-63.305 8.833-91.604 5.235-30.753 17.83-73.937 29.608-102.236 1.145-2.617 8.833-18.484 17.012-35.169 15.376-31.571 31.080-56.762 53.654-86.696 18.812-24.864 63.796-69.521 88.005-87.514 3.599-2.781 6.87-5.235 7.361-5.725 0.491-0.654 4.089-3.272 8.179-5.889 4.089-2.781 11.287-7.688 16.031-10.96 39.095-27.645 97.656-54.144 149.183-67.885 87.187-23.065 169.467-23.882 256.491-2.617 16.521 4.089 49.237 14.231 60.033 18.648 2.781 1.145 6.38 2.617 8.179 3.435 21.102 8.67 55.78 25.845 72.138 35.987 46.456 28.299 80.317 56.925 120.394 101.255 16.685 18.484 24.537 28.953 46.783 62.16 8.506 12.923 34.679 63.141 42.040 80.971 4.417 10.796 5.725 14.231 9.651 25.682 18.321 53.817 28.79 115.486 28.79 168.158 0 23.228-4.253 67.067-8.833 91.604-23.065 122.357-87.678 230.973-182.717 306.873-6.707 5.235-12.432 9.978-12.923 10.469-0.491 0.654-4.089 3.272-8.179 5.889-4.089 2.781-12.268 8.342-18.321 12.596-17.994 12.268-50.055 29.771-74.919 40.895-78.027 34.842-176.337 50.219-258.454 40.404zM571.052 895.223c85.715-11.778 164.233-46.783 231.3-102.727 14.395-12.105 46.62-45.148 59.052-60.36 113.687-141.495 132.171-334.518 47.438-495.969-29.608-56.435-77.209-112.215-127.755-149.347-6.216-4.58-12.105-8.997-13.086-9.651-17.83-13.904-66.904-39.75-97.329-51.2-32.061-12.105-63.796-20.284-100.601-25.518-29.935-4.417-92.258-3.926-122.684 0.818-71.647 10.96-132.171 34.842-192.859 75.737-34.842 23.555-74.755 61.996-102.564 98.801-13.741 18.321-15.213 20.284-17.83 24.864-1.472 2.454-4.744 7.688-7.361 11.778-7.361 11.45-24.537 45.148-30.262 59.706-2.944 7.197-6.216 15.376-7.361 17.994-8.833 21.102-18.648 59.052-24.046 93.73-4.58 30.098-5.071 94.221-0.818 123.829 16.521 113.033 70.502 211.997 154.909 283.645 7.688 6.38 14.722 12.268 15.54 12.923 0.981 0.654 5.071 3.762 9.16 6.87 4.253 3.108 9.324 6.87 11.287 8.179s5.398 3.762 7.361 5.398c2.127 1.472 4.089 2.781 4.58 2.781s4.744 2.617 9.488 5.889c17.994 12.268 70.012 35.987 99.619 45.475 29.935 9.488 74.101 17.666 106.326 19.629 19.957 1.145 69.684-0.654 88.496-3.272zM393.406 788.897c-5.398-3.272-11.287-6.543-13.086-7.361s-4.417-2.127-5.725-3.108c-1.309-0.818-8.179-4.907-15.213-9.16-20.611-12.105-22.41-20.774-9.651-43.185 4.417-7.688 9.978-17.503 12.596-22.083 2.454-4.417 8.342-14.722 13.086-22.901 4.744-8.015 15.704-26.827 24.21-41.712s17.012-29.608 18.812-32.716c1.963-3.108 5.398-9.324 7.852-13.904 10.633-19.629 16.849-25.355 27.645-25.355 5.562 0 11.614 2.944 34.842 16.521 20.284 11.778 28.953 17.83 30.589 21.102 2.617 5.235 3.272 18.157 0.981 20.447-0.818 0.981-6.543 10.796-12.923 22.083-6.216 11.287-15.049 26.663-19.466 34.351-18.321 31.571-33.043 56.925-36.969 64.123-15.213 27.481-25.355 43.021-29.771 45.802-7.852 4.744-16.521 3.762-27.808-2.944zM321.431 729.355c-0.818-0.981-9.488-6.707-18.975-12.923-38.114-25.191-52.181-51.2-52.181-96.511 0-18.975 4.253-52.509 9.651-75.573 4.58-19.302 14.722-54.962 17.666-61.996 1.309-3.108 3.435-8.997 4.907-13.086 9.978-29.935 42.53-97.493 65.104-135.77 12.105-20.447 40.404-63.468 49.728-75.41 3.272-4.253 7.034-9.324 8.342-11.287s3.272-4.58 4.089-5.562c0.981-0.981 5.889-7.034 10.96-13.25 32.225-40.895 83.916-88.496 116.631-108.125 36.314-21.592 67.067-24.537 102.236-9.651 16.031 6.707 32.879 15.704 33.697 17.994 0.491 1.145-1.309 5.562-3.926 10.142-2.617 4.417-6.543 11.287-8.833 15.376-2.29 3.926-8.342 14.558-13.577 23.555s-10.796 18.648-12.432 21.592c-1.636 2.781-4.744 8.179-7.034 11.778-2.454 3.599-4.253 7.034-4.253 7.361s-4.417 8.179-9.815 17.176c-5.398 9.16-9.815 16.849-9.815 17.176s-4.58 8.506-10.305 18.321c-5.725 9.815-10.796 19.139-11.45 20.774-1.309 3.599-4.089 3.599-14.231-0.491-11.123-4.417-28.463-4.253-42.53 0.164-10.633 3.272-26.5 11.287-30.753 15.54-1.145 1.309-2.781 2.29-3.599 2.29-1.963 0-27.972 25.845-35.333 35.169-3.435 4.417-7.034 8.997-8.015 9.978-5.725 6.543-17.994 26.663-26.5 43.839-18.648 37.296-27.154 68.212-27.318 99.128 0 32.225 7.525 51.691 25.682 64.613l4.58 3.435-12.923 21.919c-18.321 31.407-36.642 63.305-42.040 72.792-2.454 4.58-10.469 18.484-17.994 31.080-7.361 12.596-15.54 26.827-17.994 31.571-4.417 8.179-7.852 10.142-11.45 6.87zM653.004 361.304c-3.272-1.472-28.299-15.54-34.679-19.629-1.309-0.818-5.889-3.435-9.978-5.562-9.324-5.071-15.704-12.432-17.176-19.629-1.309-7.361 0.654-11.45 24.7-52.509 13.577-23.228 37.459-64.613 42.53-73.61 2.454-4.417 9.978-17.666 16.849-29.281 19.957-33.697 22.083-34.024 61.833-11.123 41.385 24.21 42.203 26.336 22.247 60.851-7.034 12.105-13.25 23.228-13.904 24.537s-2.454 4.744-4.253 7.361c-1.636 2.781-10.142 17.503-18.975 32.716-8.833 15.376-19.629 33.861-23.882 41.385-4.417 7.361-8.015 13.904-8.015 14.231s-3.762 6.543-8.179 13.741c-8.179 12.596-11.287 15.213-21.265 17.176-2.29 0.491-5.725 0.164-7.852-0.654z" horiz-adv-x="1022" />
<glyph unicode="&#xe602;" d="M478 956c-66-7.2-110.8-28-156-73.6-54.8-54.8-80.8-120.8-84.8-213.6-2-39.2-0.8-54.8 4.8-76 9.2-35.6 38.4-101.6 65.6-148.8 49.2-84.8 68.8-138 62.8-170-5.2-28-13.6-32.4-88.8-48-37.6-7.6-80-17.6-94-22.4-118.8-38.8-187.2-126.4-187.6-240.4v-27.2h1025.2l-2.4 35.2c-4.8 69.2-25.6 118.8-66.8 160.4-46.8 47.2-101.2 71.6-204 92-80.8 16.4-86.8 18.4-94.4 33.2-8.8 17.2-8 59.6 2.4 92 4.4 14.8 22.8 56.4 40.4 92 17.6 36 38.4 85.2 46.8 109.2 14.4 43.6 14.8 44.8 14.4 106 0 74.8-8.4 114-36.4 171.2-46 94.4-134.4 140.4-247.2 128.8zM537.6 212.4c1.2-2-0.4-10.4-4-18.8-10.8-25.6-6.4-49.2 28.4-146.8 3.6-10.4 6-23.2 4.4-28-3.2-12.4-46.4-63.6-52.4-62-7.2 1.6-54 59.6-54 66.4 0 2.8 7.2 27.2 16.4 54 18 54.4 24.8 106 15.6 122.8-4 7.2-3.6 9.6 0.4 12.4 7.2 4.4 42.4 4.4 45.2 0z" />
<glyph unicode="&#xe603;" d="M446.123 957.611c-1.707-2.389-4.779-19.115-10.923-55.637-2.048-11.264-6.144-37.205-10.24-66.56-4.096-27.989-4.779-29.013-15.36-29.013-5.461 0-10.923-1.365-11.947-3.413-1.024-1.707-5.12-3.413-8.875-3.413-3.413 0-9.216-1.365-12.629-3.072-3.072-1.707-15.019-7.168-26.283-12.288s-21.504-10.923-22.869-12.971c-2.731-4.437-17.067 2.048-29.013 12.971-13.312 11.947-17.749 15.36-20.48 15.36-1.707 0-5.12 3.072-7.851 6.827s-6.485 6.827-8.533 6.827c-1.707 0-12.288 6.827-22.869 15.36-10.923 8.533-21.163 15.36-22.869 15.36s-4.779 2.389-7.168 5.12c-2.389 2.731-6.827 5.12-9.899 5.12-5.461 0-34.475-24.235-34.475-28.672 0-3.755-16.384-19.115-20.48-19.115-1.707 0-3.413-1.365-3.413-3.072s-7.509-10.923-17.067-20.48c-9.216-9.557-17.067-18.773-17.067-20.48 0-1.365 3.072-5.461 6.827-8.875s6.827-8.192 6.827-10.923c0-2.389 1.365-4.437 2.731-4.437 1.707 0 5.12-4.096 7.851-9.216 2.731-5.461 5.461-10.24 6.485-11.264s9.216-11.605 17.749-23.893c8.875-12.288 17.749-23.893 19.797-26.283 1.707-2.389 3.413-5.461 3.413-7.168s2.389-5.12 5.12-7.509c7.509-6.144 6.144-20.139-3.413-35.84-4.779-7.509-8.533-16.384-8.533-19.456 0-3.413-1.365-6.144-3.413-6.144-1.707 0-3.413-3.755-3.413-8.192 0-4.779-1.365-9.557-3.413-10.581-1.707-1.024-3.413-4.779-3.413-8.192 0-13.312-8.192-23.552-20.48-25.6-6.485-1.024-33.451-5.803-59.733-10.923-26.283-4.779-54.272-9.557-62.123-10.581l-14.677-1.707v-66.219c0-63.829 0.341-66.219 6.827-66.219 3.755 0 13.312-1.707 21.163-3.413 22.869-5.461 74.411-14.336 93.867-16.043 21.845-2.048 29.355-8.533 37.205-34.133 3.413-10.923 10.581-28.672 16.043-39.936 12.629-26.283 14.677-37.205 7.851-44.032-3.072-2.731-5.461-6.827-5.461-8.533 0-2.048-1.024-4.096-2.389-4.779-3.413-1.365-34.475-44.373-43.691-59.733-3.755-6.144-7.851-11.264-9.216-11.264s-2.731-1.707-2.731-3.413c0-2.048-3.072-6.827-6.827-10.923s-6.827-9.557-6.827-11.947c0-7.509 83.285-89.771 91.136-89.771 3.755 0 9.557 3.072 12.971 6.827s7.851 6.827 10.24 6.827c2.389 0 6.827 3.072 10.24 6.827s8.192 6.827 10.923 6.827c2.389 0 4.437 1.365 4.437 2.731 0 1.707 4.096 5.12 9.557 7.851 5.12 2.731 9.899 5.461 10.923 6.485 6.485 6.485 42.325 31.403 49.152 34.133 7.851 2.731 19.456-1.707 63.829-23.893 3.072-1.707 12.288-4.779 20.48-6.827 19.456-5.12 23.552-8.875 23.552-20.48 0-5.461 1.365-17.067 3.413-26.283 1.707-8.875 6.485-36.181 10.581-60.757s7.851-45.397 8.875-46.763c2.048-3.755 126.635-3.413 128.683 0 2.389 3.755 17.749 84.651 22.869 120.491l4.437 29.355 17.067 4.437c9.557 2.389 31.403 10.923 48.469 19.115s33.451 15.019 36.523 15.019c2.731 0 9.557-3.755 15.019-8.192 5.12-4.096 24.917-18.432 43.691-31.403 18.773-12.629 34.816-24.576 35.157-25.941 0.683-1.365 3.072-2.731 5.461-2.731s7.168-3.072 10.581-6.827c3.413-3.755 9.216-6.827 12.971-6.827 7.168 0 91.136 83.285 91.136 90.453 0 2.389-4.096 8.533-9.216 14.336-9.899 10.581-16.725 19.797-20.48 28.331-1.365 2.731-3.072 5.803-4.437 6.827-1.024 1.024-5.803 7.168-10.24 13.653-9.216 13.312-10.24 14.677-21.504 29.013-4.779 5.803-10.923 15.36-13.995 21.504-5.461 10.581-5.461 11.947 1.365 26.965 3.755 8.875 8.192 17.067 9.557 18.091 2.048 1.365 13.312 34.133 19.797 57.003 0.683 2.389 3.413 4.437 6.485 4.437 2.731 0 5.12 1.365 5.12 3.072s8.192 3.755 18.091 4.779c17.408 1.365 112.64 18.091 121.173 21.163 3.072 1.024 4.096 17.067 4.096 64.512v63.488l-9.216 1.707c-5.461 1.024-14.336 3.413-20.139 5.12-5.803 2.048-17.408 3.413-25.6 3.413-8.533 0-16.725 1.365-18.432 3.072-2.048 1.707-11.947 4.096-22.187 4.779-17.408 1.707-31.061 3.755-50.176 7.851-4.779 0.683-8.192 4.779-9.557 11.605-1.024 5.461-5.12 16.043-8.875 23.552-3.413 7.509-6.485 15.36-6.485 17.408s-4.779 12.971-10.581 24.576l-10.581 21.163 7.851 14.677c4.437 8.192 9.216 14.677 10.581 14.677 1.707 0 2.731 1.707 2.731 3.413 0 3.413 12.971 23.893 17.408 27.307 1.365 1.024 5.12 6.485 8.533 12.288 3.755 6.144 13.995 20.48 22.869 32.085l16.725 21.504-23.552 23.893c-53.931 55.296-66.56 67.243-70.656 67.243-2.389 0-7.168-3.072-10.581-6.827s-7.509-6.827-9.216-6.827c-1.707 0-5.12-2.048-7.509-4.096-5.12-5.12-8.875-7.851-56.661-41.984-35.499-25.6-41.984-28.672-46.080-22.187-1.024 2.048-5.12 3.413-8.875 3.413-3.413 0-6.485 1.707-6.485 3.413 0 2.048-3.072 3.413-6.827 3.413s-6.827 1.707-6.827 3.413c0 2.048-3.072 3.413-6.485 3.413-3.755 0-7.509 1.365-8.533 3.072-1.024 1.365-11.947 5.803-24.235 9.216-12.971 3.755-22.869 8.533-23.552 11.605-3.072 10.923-8.533 40.96-13.995 75.093-3.072 19.797-6.827 40.619-8.875 46.421-1.707 5.803-3.072 13.653-3.072 17.749 0 7.509-0.341 7.509-64.512 7.509-35.84 0-65.536-1.024-66.219-2.389zM559.445 617.984c50.859-16.384 90.112-49.493 110.933-93.184 28.331-60.416 21.163-133.461-18.091-181.248-4.779-5.803-11.264-13.653-14.336-17.067-7.509-9.557-33.451-30.037-41.643-33.109-3.755-1.365-11.605-4.779-17.408-7.168-13.995-6.485-53.931-15.701-66.219-15.701-12.971 0-62.464 12.288-78.507 19.797-13.312 6.144-36.523 22.528-45.056 31.744-22.528 25.259-37.205 48.811-43.349 69.632-10.24 35.157-11.605 52.224-7.509 80.896 9.899 69.291 53.931 120.491 124.245 145.067 13.995 5.12 82.261 5.461 96.939 0.341z" />
<glyph unicode="&#xe604;" d="M256 960c-141.376 0-256-114.624-256-256s256-768 256-768 256 626.624 256 768-114.624 256-256 256zM256 576c-70.688 0-128 57.312-128 128s57.312 128 128 128 128-57.312 128-128-57.312-128-128-128z" horiz-adv-x="512" />
<glyph unicode="&#xe605;" d="M701.888 640l-373.334-375.658c-12.394-12.374-32.448-12.374-44.822 0-12.374 12.352-12.374 32.618 0 44.992l437.59 440.34c18.134 18.326 47.552 18.326 65.686 0l98.56-99.2c18.134-18.134 18.134-47.786 0-66.134l-437.546-440.34c-78.294-78.698-205.226-78.698-283.734 0-78.314 78.934-78.314 206.698 0 285.674l373.334 375.658c20.694 20.694 20.694 54.4 0 75.114-20.48 20.694-53.974 20.694-74.666 0l-373.334-375.68c-119.488-120.342-119.488-315.52 0-435.84 119.68-120.342 313.6-120.342 433.066 0l470.4 473.366c41.194 41.6 41.194 108.822 0 150.4l-164.266 165.12c-41.174 41.6-108.16 41.6-149.334 0l-470.4-473.386c-53.546-53.76-53.546-141.206 0-195.178 53.76-53.974 140.586-53.974 194.154 0l373.334 375.68c20.694 20.694 20.694 54.4 0 75.094-20.714 20.672-53.994 20.672-74.688-0.022z" />
<glyph unicode="&#xe606;" d="M889.366 222.080c-61.846 80.854-141.654 122.666-276.458 136.106-24.342 4.886-42.666 26.454-42.666 52.054 0 18.752 60.138 74.88 59.712 75.286 62.078 64.234 95.38 168.554 95.38 248.768 0 124.586-100.268 225.706-224 225.706s-224-101.12-224-225.706c0-80.64 32.426-185.6 95.146-249.814 0 0 59.946-55.488 59.946-74.218 0-27.114-20.48-49.706-46.934-52.906-132.054-13.866-210.986-55.466-272.214-135.254-17.704-23.062-27.304-69.356-27.944-94.102 0.214-6.4 0-106.666 0-106.666 0-47.146 38.186-85.334 85.334-85.334h661.334c47.146 0 85.334 38.186 85.334 85.334 0 0-0.214 100.266 0 106.666-0.622 24.746-10.242 71.040-27.97 94.080z" />
<glyph unicode="&#xe607;" d="M889.366 222.080c-44.8 58.454-98.986 96.426-176.618 117.952l-72.748-254.698c0-23.466-19.2-42.666-42.666-42.666s-42.666 19.2-42.666 42.666v202.666c0 29.44-23.894 53.334-53.334 53.334s-53.334-23.894-53.334-53.334v-202.666c0-23.466-19.2-42.666-42.666-42.666s-42.666 19.2-42.666 42.666l-72.746 254.698c-77.654-21.76-131.84-59.498-176.64-117.952-17.708-23.040-27.308-69.334-27.948-94.080v-106.666c0-47.146 38.186-85.334 85.334-85.334h661.334c47.146 0 85.334 38.186 85.334 85.334v106.666c-0.642 24.746-10.242 71.040-27.97 94.080zM501.334 426.666c143.786 0 224 183.040 224 307.628s-100.268 225.706-224 225.706-224-101.12-224-225.706 77.652-307.628 224-307.628z" />
<glyph unicode="&#xe608;" d="M889.366 222.080c-24.96 32.618-52.886 58.88-86.4 79.552-51.82-114.966-167.446-194.966-301.632-194.966s-249.814 80-301.674 194.986c-33.28-20.694-61.418-46.934-86.378-79.552-17.708-23.060-27.33-69.354-27.948-94.1 0.214-6.4 0-106.666 0-106.666 0-47.146 38.186-85.334 85.334-85.334h661.334c47.146 0 85.334 38.186 85.334 85.334 0 0-0.214 100.266 0 106.666-0.642 24.746-10.242 71.040-27.97 94.080zM385.472 357.334c-17.898-1.92-34.986-4.266-51.178-7.040-18.56-4.694-32.64-21.546-32.64-41.6 0-8.32 2.346-15.766 6.4-22.4 44.8-57.388 114.752-94.294 193.28-94.294 76.586 0 144.854 34.986 189.866 89.814 5.952 7.254 9.366 16.64 9.366 26.88 0 20.906-15.146 38.4-35.2 42.026-16.618 3.008-34.134 5.568-52.886 7.488-24.106 4.458-42.24 21.526-42.24 47.126 0 23.466 17.472 41.366 40.96 44.374 2.326 0.426 7.872 0.618 7.872 0.618 114.794 8.128 192.874 31.382 244.266 75.754 7.062 7.466 11.328 17.494 11.328 28.586 0 22.186-16.854 40.32-38.4 42.454-63.36 12.8-110.932 65.28-110.932 128.214v8.96c0 124.586-100.268 225.706-224 225.706s-224-101.12-224-225.706v-8.96c0-62.934-47.574-115.414-110.934-128.214-21.546-2.134-38.4-20.266-38.4-42.454 0-11.094 4.266-21.12 11.286-28.586 51.648-44.374 129.706-67.626 244.714-75.754 3.414 0 6.634-0.214 9.6-0.618 23.872-3.414 38.806-20.48 38.806-44.374 0.020-27.308-20.438-44.8-46.934-48z" />
<glyph unicode="&#xe609;" d="M906.666 746.666h-138.666v128c0 47.146-38.186 85.334-85.334 85.334h-341.332c-47.146 0-85.334-38.186-85.334-85.334v-128h-138.666c-29.44 0-53.334-23.892-53.334-53.332s23.894-53.334 53.334-53.334h32v-618.666c0-47.146 38.186-85.334 85.334-85.334h554.666c47.146 0 85.334 38.186 85.334 85.334l-0.002 618.666h32c29.44 0 53.334 23.894 53.334 53.334s-23.894 53.332-53.334 53.332zM661.334 746.666h-298.668v59.734c0 26.026 20.908 46.934 46.934 46.934h204.8c26.026 0 46.934-20.908 46.934-46.934v-59.734zM362.666 597.334v-512c0-23.466-19.2-42.666-42.666-42.666s-42.666 19.2-42.666 42.666v512c0 23.466 19.2 42.666 42.666 42.666s42.666-19.2 42.666-42.666zM554.666 597.334v-512c0-23.466-19.2-42.666-42.666-42.666s-42.666 19.2-42.666 42.666v512c0 23.466 19.2 42.666 42.666 42.666s42.666-19.2 42.666-42.666zM746.666 597.334v-512c0-23.466-19.2-42.666-42.666-42.666s-42.666 19.2-42.666 42.666v512c0 23.466 19.2 42.666 42.666 42.666s42.666-19.2 42.666-42.666z" />
<glyph unicode="&#xe60a;" d="M0 85.334c0-82.56 66.774-149.334 149.334-149.334 41.174 0 79.574 15.574 106.666 42.666l272.214 272.426 72.96-72.96c-9.814-35.84-0.426-75.946 27.968-104.512l105.814-105.814c42.218-42.048 109.846-42.454 151.466-0.854s41.194 109.206-0.854 151.466l-105.814 105.814c-28.586 28.374-68.694 37.76-104.512 27.946l-72.96 72.768 46.912 46.912c99.84-25.174 209.92 1.088 287.786 77.226 53.546 52.48 83.008 119.040 87.040 187.946v3.626c-0.020 23.238-19.22 42.010-42.9 42.010-11.754 0-22.422-4.714-30.314-12.16l-12.566-12.374-43.094-42.238c-27.114-26.454-65.706-42.026-107.306-42.026-41.366 0-77.866 18.134-104.96 44.8-26.666 27.094-44.992 63.786-44.992 105.174 0 41.6 15.552 80.214 42.026 107.306l42.22 43.092 12.374 12.566c7.444 7.892 12.158 18.56 12.158 30.314 0 23.68-18.772 42.88-42.048 42.88h-3.626c-68.886-4.032-135.466-33.494-187.946-87.040-76.138-77.866-102.186-187.968-77.014-287.574l-47.126-47.146-196.906 197.12v53.974l-128 64-64-64 64-128h53.76l197.12-196.906-272.214-272.428c-27.092-27.094-42.666-65.494-42.666-106.666zM106.666 96c0 29.44 23.894 53.334 53.334 53.334s53.334-23.894 53.334-53.334-23.894-53.334-53.334-53.334-53.334 23.894-53.334 53.334z" />
<glyph unicode="&#xe60b;" d="M870.4 921.6h-716.8c-56.32 0-102.4-46.080-102.4-102.4v-716.8c0-56.371 46.080-102.4 102.4-102.4h358.4v358.4h-102.4v126.72h102.4v104.96c0 110.797 62.054 188.621 192.819 188.621l92.314-0.102v-133.376h-61.286c-50.893 0-70.246-38.195-70.246-73.626v-86.528h131.482l-29.082-126.669h-102.4v-358.4h204.8c56.32 0 102.4 46.029 102.4 102.4v716.8c0 56.32-46.080 102.4-102.4 102.4z" />
<glyph unicode="&#xe60c;" d="M512 952.32c-271.462 0-491.52-220.058-491.52-491.52s220.058-491.52 491.52-491.52 491.52 220.058 491.52 491.52-220.058 491.52-491.52 491.52zM711.936 549.683c0.205-4.198 0.256-8.397 0.256-12.493 0-128-97.331-275.507-275.405-275.507-54.682 0-105.574 15.974-148.378 43.52 7.526-0.922 15.258-1.28 23.091-1.28 45.363 0 87.091 15.411 120.218 41.421-42.342 0.819-78.080 28.774-90.419 67.174 5.888-1.075 11.93-1.69 18.176-1.69 8.806 0 17.408 1.178 25.498 3.379-44.288 8.909-77.67 48.026-77.67 94.925v1.178c13.056-7.219 28.006-11.622 43.878-12.134-26.010 17.408-43.059 47.002-43.059 80.64 0 17.715 4.762 34.406 13.107 48.691 47.77-58.573 119.040-97.075 199.526-101.222-1.69 7.117-2.509 14.49-2.509 22.118 0 53.402 43.315 96.819 96.819 96.819 27.802 0 52.992-11.776 70.656-30.618 22.067 4.403 42.752 12.39 61.44 23.501-7.219-22.579-22.528-41.574-42.547-53.606 19.61 2.406 38.246 7.578 55.603 15.309-12.954-19.405-29.389-36.506-48.282-50.125z" />
<glyph unicode="&#xe60d;" d="M382.293 944.64c-49.493-12.971-87.723-30.379-133.12-60.757-41.643-27.989-63.829-53.248-90.453-104.107-12.629-24.576-30.72-54.955-40.619-67.925-22.869-30.379-26.283-38.571-21.163-48.128 2.048-4.096 27.648-29.696 56.32-57.003 58.368-55.296 63.147-57.344 79.189-38.229 8.875 10.581 9.899 10.923 35.84 10.581 23.211 0 30.379-1.707 49.493-10.923 12.629-6.144 26.624-10.923 31.061-10.923 6.144 0 22.187 14.336 61.781 53.931 29.355 29.696 53.589 56.661 53.589 59.392 0 6.144-6.485 22.187-26.965 64.853-7.509 16.384-13.995 33.109-13.995 37.205 0 9.899 45.056 53.931 65.536 63.829 24.235 11.947 48.811 17.408 86.357 19.797 18.773 1.365 36.864 3.755 40.277 5.461 7.168 3.755 7.851 20.821 0.683 27.989-22.187 21.845-59.733 45.056-87.040 52.907-8.533 2.389-19.797 5.803-25.259 7.509-19.456 6.144-90.453 2.731-121.515-5.461zM917.504 926.891c-32.427-26.965-90.453-77.483-95.573-83.627-8.192-9.216-7.851-21.845 0.683-32.768l7.168-8.875-238.933-238.933-47.104 48.469c-26.283 27.307-49.835 48.469-53.248 48.469-5.461 0-23.552-16.043-106.496-93.867-20.139-19.115-26.624-29.355-23.552-37.547 1.365-3.072 21.163-27.307 44.373-53.931s42.325-50.517 42.325-52.907c0-11.605-11.264-6.144-33.451 16.384-28.331 29.013-29.696 29.013-60.416 0.341-11.264-10.581-88.064-81.92-170.667-158.72s-155.989-145.067-162.816-151.893c-15.36-14.677-23.893-40.96-17.067-51.541 2.389-3.755 4.096-9.216 4.096-11.947 0-9.899 20.139-45.397 37.547-66.219 17.067-20.48 46.421-43.008 66.901-51.2 14.336-5.461 44.715-5.461 51.541 0.341 9.899 7.851 330.069 354.987 338.261 366.592 10.581 14.677 8.192 21.504-17.408 48.128-17.067 18.091-19.797 22.187-16.043 26.624 2.389 2.731 5.461 4.096 7.168 3.072 3.072-1.707 67.925-76.117 141.312-161.792 18.773-21.845 58.709-68.267 88.747-102.741s77.141-89.088 105.131-121.515c27.648-32.427 53.931-59.733 58.027-61.099 28.672-9.216 63.829 5.461 100.011 41.301 47.104 46.763 68.608 104.107 48.469 130.048-4.096 5.461-65.195 69.632-135.851 142.677-166.229 172.373-262.827 274.773-262.827 278.528 0 4.096 231.083 235.52 235.52 235.52 2.048 0 7.851-3.072 12.971-6.827 5.461-4.096 11.947-5.803 16.043-4.779 3.755 1.024 17.067 15.36 29.696 31.403 12.971 16.384 33.109 42.325 45.056 58.027 24.576 31.403 27.989 38.229 22.528 48.128-4.437 8.875-40.277 37.888-46.080 37.888-2.389 0-9.557-4.096-16.043-9.216zM372.053 376.661c0-3.413-9.557-15.36-21.504-26.283-11.605-11.264-80.213-75.435-152.235-143.019-124.587-117.077-141.995-131.413-146.091-119.125-1.365 3.755 40.96 44.715 164.523 160.085 28.331 26.283 64.171 60.075 80.213 75.093 70.315 66.56 75.093 69.973 75.093 53.248zM398.677 345.941c-1.707-11.605-288.085-311.637-295.936-310.272-15.019 3.072-20.821-4.096 196.949 225.621 82.944 87.040 102.4 103.765 98.987 84.651zM439.637 317.611c1.365-7.168-284.331-318.464-292.181-318.464-3.072 0-6.144 2.389-6.827 5.461-1.365 7.509 286.037 320.853 292.864 319.829 2.731-0.683 5.461-3.755 6.144-6.827zM67.243 645.291c-9.216-8.875-47.787-56.32-60.416-74.069-7.168-10.24-7.509-12.288-3.072-19.456 7.509-12.288 119.808-114.005 125.952-114.005 6.827 0 19.797 13.653 49.152 52.224 28.672 37.888 30.72 45.739 15.019 61.099-92.843 91.136-104.789 101.717-111.275 101.717-3.755 0-10.923-3.413-15.36-7.509z" />
<glyph unicode="&#xe60e;" d="M723.6 852c-33.2-17.6-53.6-55.6-50.8-94.8 3.6-46.4 31.2-81.6 71.6-90.8l21.6-4.4 5.2-28c7.6-40.8 4.8-65.2-9.6-77.2-41.2-33.6-38.4-28.4-37.2-65.6l0.8-33.2-18-12c-10-6.4-36.8-24.8-59.6-40.8-176-121.6-247.6-170.4-252.8-172.4-1.6-0.8-12 6-23.2 14.8-11.6 9.2-23.2 16.4-26.4 16.4-2.8 0-16-4.4-29.2-10-30.4-12.8-38-10-70.8 24.8l-24.4 26 8.4 14.8c7.2 11.6 8.8 20.8 8.8 46.8 0 28.8-1.2 34.4-12 51.6-33.2 53.6-95.2 61.6-136.4 17.2-54.4-58.4-15.6-167.2 59.6-167.2h13.6l2.8-27.2c4-38 16.8-94 26.8-114.8 11.6-24.8 32-42 50-42 15.2 0 82.8 30 104 46 7.2 5.6 15.2 10 17.6 10s19.6-14.4 38-32c32.8-31.6 33.6-32 53.6-32 25.2 0 38.4 10.4 34.4 27.2-3.2 13.6-18.4 36.8-41.2 64-10 11.6-17.2 21.6-16.4 22.4s18.8 13.2 39.6 27.2c20.8 14 52.8 35.6 71.2 48 18 12.4 32.8 21.6 32.8 20 0-2.4-8.8-32-26-88.8-5.2-16.4-15.2-49.6-22-74-7.2-24-17.2-58-22.4-75.2s-9.6-34-9.6-37.2c0-4.8 16-5.6 104-5.6h104l-4.4 11.2c-4.4 10.8-25.6 80.4-39.6 128.8-4 14.4-13.2 44.8-20 68-7.2 23.2-16.4 54.8-20.4 70l-8 28 11.2 9.2c16 12.8 16 13.2 49.2 34.8 16.4 10.8 36.8 24.8 45.2 31.2s16 10.8 17.2 9.6c1.2-1.2 5.6-16.4 9.2-33.6 8.8-38 18.8-60 28.8-63.2 11.6-4 26.8 8 36.4 28.4 8.4 16.4 8.4 19.6 4 45.6-2.8 15.6-4.8 38.8-4.8 52v23.6l55.6 38.4c30.4 20.8 56.8 40.8 58 44.4 4.8 12.4 2 40-5.6 56.4-11.6 25.6-28 48-59.6 80.4l-28.8 29.6 10.4 20.4c23.6 48 4 111.2-42.4 134.8-20 10.4-52.8 10.4-72 0z" />
<glyph unicode="&#xe60f;" d="M432.4 893.2c-8.4-16.4-373.2-942-371.6-943.6 1.2-0.8 85.6-0.4 188 1.2l186 2.4 2.8 62.4c1.6 34.4 3.6 76.4 5.2 93.6l2.4 31.2 116.8-2.4 6.8-68c3.6-37.2 8-79.2 9.2-93.2l2.8-25.2 191.6 0.4c105.2 0.4 191.6 1.6 191.6 2.8 0 3.6-409.2 935.2-413.2 940.4-2 2.4-8.4 4.8-14 4.8h-10l2.8-62.8c1.2-34.8 3.6-95.2 4.8-134l2.8-71.2h-11.6c-6.4 0-24-1.2-39.2-2.8l-27.6-2.4 3.2 136.4 2.8 136.8h-14.4c-9.2 0-15.2-2.4-18-6.8zM549.2 404.4c4-66.8 6.4-122 5.6-122.8s-25.2-2.8-54.8-4l-53.2-2.8 2.4 85.2c1.6 46.8 2.8 104 2.8 126.8v41.6l90-2.4 7.2-121.6z" />
<glyph unicode="&#xe610;" d="M504.832 954.197c-4.096-4.779-213.333-201.045-255.659-239.957-22.187-20.48-99.669-92.843-128-119.808-16.725-16.043-42.325-39.936-56.32-52.565-13.995-12.971-26.283-24.576-27.307-25.941-1.024-1.024-9.557-8.875-19.115-17.408l-17.749-15.36 23.893-28.672c12.971-15.701 24.917-30.037 26.624-31.744s36.181 28.331 79.189 68.608c72.363 67.925 164.181 153.941 309.589 289.451 36.864 34.816 68.608 61.44 72.021 61.44 3.755 0 97.963-85.675 231.083-209.92 123.221-115.371 225.621-209.92 226.987-209.92 2.731 0 50.517 56.661 50.517 60.075 0 2.048-8.533 10.24-63.147 60.757-12.971 11.947-37.888 35.157-54.613 51.2-17.067 16.043-50.517 47.787-74.752 70.315s-45.739 42.667-47.787 44.373c-2.048 2.048-52.907 49.493-112.981 105.472-60.075 56.32-119.467 111.616-131.755 123.563-12.629 11.947-23.211 21.845-24.235 21.845-0.683 0-3.413-2.731-6.485-5.803zM163.157 889.003l-9.557-1.024v-97.28c0-53.248 1.024-96.939 2.048-96.939s19.797 17.408 41.643 38.571c22.187 21.163 49.493 47.787 61.44 58.709l21.163 19.797v38.229c0 33.109-0.683 38.912-5.803 40.619-5.803 2.389-91.819 1.707-110.933-0.683zM373.077 645.291c-74.752-69.973-145.749-136.533-158.037-148.139s-31.061-29.013-41.984-38.912l-19.456-18.091v-244.395c0-215.723 0.683-245.419 5.461-252.245l5.12-7.509h235.179v109.227c0 104.789 0.341 109.568 6.827 116.053s11.264 6.827 105.131 6.827c79.531 0 99.669-1.024 105.131-4.779 6.144-4.779 6.485-10.581 7.509-116.053l1.024-111.275h234.496l5.461 8.533c4.779 7.509 5.461 33.451 5.461 251.904v243.712l-19.456 18.091c-23.211 21.163-49.152 45.739-117.419 109.568-159.403 149.845-218.795 204.459-221.525 204.459-1.707 0-64.171-57.003-138.923-126.976z" />
<glyph unicode="&#xe611;" d="M518.8 764.8c-16-11.6-19.2-16-38.8-56.8-6.8-14.4-14-28.8-16.4-32-2-3.2-5.6-10.4-7.6-16-2.4-5.6-6-12.8-8-16-2.4-3.2-6-10.4-8.4-16-6.4-15.2-51.6-109.2-56-116-5.6-9.2-10.8-21.6-10-24.4 0-1.6-2.4-6-6-10-3.6-4.4-7.6-10.8-8.8-14.8-2-4.8-6-6.8-11.2-6-8.8 1.2-12.4 5.6-19.6 23.2-2 5.6-5.6 12.8-7.6 16-2.4 3.2-9.6 17.6-16 32-13.2 27.6-24.8 44-32 44-2.4 0-4.4 2-4.4 4 0 2.4-5.2 4-12 4-6.4 0-12-1.6-12-4 0-2-2.4-4-4.8-4.4-10.4-0.4-40.8-47.6-59.2-91.6-2-5.6-5.6-12.8-7.6-16-2.4-3.2-11.2-22-20.4-42-9.2-19.6-18-38.8-20.4-42-2-3.2-5.6-10.4-7.6-16-2.4-5.6-6-12.8-8-16-2.4-3.2-5.2-8.8-6.4-12-6.8-15.6-34.4-74.8-38-80-2-3.2-5.6-10.4-7.6-16-6.4-15.6-37.6-77.6-40.4-80-1.2-1.2-4.8-8.8-7.2-16.8-2.8-8-6.8-15.2-9.2-16-2.8-1.2-3.6-4.8-2-8.4 2.4-6.4 37.2-6.8 506.8-6.8s504.4 0.4 506.8 6.8c1.6 3.6 0.8 7.2-2 8.4-2.4 0.8-6.4 8-9.2 16-2.4 8-6 15.6-7.2 16.8-2.4 2-17.6 31.6-24.4 48-2 5.6-5.6 12.8-8 16-2 3.2-5.6 10.4-8 16-2 5.6-5.6 12.8-7.6 16-2.4 3.2-11.2 21.6-20.4 40.8s-18 36-20.4 37.2c-2 1.6-2.8 4-1.6 6 2.8 4.4-19.2 20-27.6 20-3.6 0-6.4-1.6-6.4-4 0-2-2-3.6-4.8-2.8-2.4 0.4-7.2-4.4-10.4-11.2-3.2-6.4-7.2-12.8-8.8-14s-4.4-6.4-6-12c-1.6-5.6-5.2-12.8-8-16s-6.4-10.4-8-16c-1.6-5.6-4.8-12.4-6.8-14.8-5.6-7.2-15.2-6.4-15.2 0.8 0 3.2-1.6 6-3.2 6-2 0-6 7.2-8.8 16s-6.8 16-8.4 16c-1.6 0-4 5.2-5.6 11.6-1.2 6.4-4.8 14-8 16.4s-6.8 9.6-8 16c-1.2 6.4-5.2 13.6-8.4 16.4-3.2 2.4-5.6 6.4-5.6 8.8 0 4-29.2 67.6-36.4 78.8-2 3.2-5.6 10.4-7.6 16-2.4 5.6-6 12.8-8 16-2.4 3.2-5.2 8.8-6.4 12-1.6 3.2-9.2 20.4-17.6 38s-16 34.8-17.6 38c-1.6 3.2-4.8 10-7.6 14.8s-22 44-42.8 86.8c-20.8 42.8-40.4 78-43.2 78.4-2.8 0-6 2.8-7.2 6-1.6 3.2-4.8 6-8 6s-5.6 2-5.6 4c0 6.8-9.2 4-25.2-7.2z" />
<glyph unicode="&#xe612;" d="M348 953.6c-32.8-8.8-55.2-21.6-78-43.6-25.6-25.6-43.2-59.2-55.6-106.4-8.4-31.6-18.4-98-18.4-121.6 0-4.8-4.8-6-22-6h-22v-32h500v32h-20c-12.8 0-20.8 2-21.6 5.2-0.8 2.4-3.6 24.8-6 49.6-5.2 50-19.6 104.8-35.6 135.2-13.6 25.2-50 62.4-72 73.6-38.4 19.6-104.8 26-148.8 14zM729.6 653.2c-19.2-37.2-38-72.8-42-79.6-4.4-6.8-7.6-14.8-7.6-17.6s24.4-31.6 54-64.4l54-59.2-0.8-132.4-1.2-132-28 36.4c-15.2 20-31.6 38-36 40s-26.8 8-50 13.6c-23.2 5.6-45.2 11.2-48.8 12.4-6.8 2-7.2-4-7.2-88.4v-90.4l-54 2.4-2 96-2 95.6-15.2 3.6c-10.8 2.8-20 9.6-33.2 25.2-10.4 12-19.6 21.6-21.2 21.6-1.2 0-15.6-16.4-32-36l-29.2-36h-24.8l-24.4 0.4-59.2 72-22.8-22.4c-15.2-14.8-27.6-23.6-36.4-25.6l-13.6-2.8-1.2-96.8-0.8-97.2-54 2.4-4 176.8-54-13.6c-29.6-7.2-54-14-54-14.4-0.4-0.4-17.2-66.4-37.6-146.8s-37.6-149.2-38.8-152.8c-2-6.8 22.8-7.2 480.4-7.2h482.4l-28.4 36.4-28 36.4v208.4l0.4 208.8 36 40c20 22 46 50.8 58 64.4l21.2 24-42.8 82c-41.2 78.8-43.2 81.6-55.6 82.8l-13.2 1.2v-140.4h-124v140h-11.6c-11.2 0-13.6-3.2-46.8-66.8zM221.6 579.6c1.6-11.2 9.2-39.2 16.8-62.8 42-128.8 124-204.4 194.4-179.2 62.8 22.4 125.6 119.2 149.2 230.4 2.8 14 4.4 27.2 3.6 28.8-1.2 1.6-84 3.2-184.4 3.2h-182.4l2.8-20.4z" />
<glyph unicode="&#xe613;" d="M287.6 950c-40.8-26.4-80.4-105.2-116.8-230-10.8-36.8-11.6-42.8-6.8-51.6 4.4-8.4 4.8-8.4 252-8.4h247.6l6 8.8c5.6 8 4.4 11.6-18 54.8-54 103.6-78 134.8-113.6 148-17.6 6.4-72.4 16-90 15.2-3.2 0-20.4 10.4-38 23.6-39.6 29.2-52 36-71.2 39.6-8 1.6-16 4.4-17.2 6.4-3.6 6.4-19.2 3.6-34-6.4zM354.4 908c13.6-6.8 27.2-14.8 29.6-18 6-7.6 2.4-18-6.4-18-10.4 0-33.6-19.6-33.6-28.4 0-15.6 15.6-17.2 44.8-3.6 22.4 10 32.4 12 56.4 12 34 0 71.2-6 89.6-14.8 11.2-5.2 41.2-40 41.2-47.6 0-1.2 3.2-7.2 7.6-12.8 13.2-19.2 40.4-72 40.4-78.4 0-6-20.4-6.4-210.8-5.6l-211.2 1.2 1.2 14c2.8 34 60.4 172.8 82.8 199.2 14.4 17.2 34.4 17.2 68.4 0.8zM388.8 777.6c-20.4-10-20.8-10.4-38.4-3.6-24 9.2-44 5.2-61.2-12-13.6-13.6-16.8-24.8-8.4-33.2 7.6-7.6 16.8-5.6 27.2 5.2 5.6 5.6 14 10 20 10s14.4-4.4 20-10c12-12.8 17.2-12.8 38.4 2.8 11.6 8.4 24.8 13.6 36.4 15.2 23.2 2.4 32.4 13.6 22.8 27.2-8.4 12-30.4 11.6-56.8-1.6zM816 638l-50-17.6h-330.8c-201.2-0.4-334.8-2-340.8-4.4-16.4-6-26.4-18.8-26.4-33.6 0-7.6 1.6-14.4 3.6-15.2 4.4-1.6 212.4-286.4 212.4-290.8 0-4-58.4-52.4-63.2-52.4-1.6 0-10 3.6-18.8 8-22.4 11.2-40.4 13.6-63.2 8.4-24.8-5.6-48.4-24-57.2-44.4-4-8.8-8.4-16-10.4-16-4 0-4.4-50.8 0-52.8 1.6-0.4 6.8-9.2 12-19.2 10.4-20.8 28-34 55.6-42.4 35.2-10.8 74 5.2 96.4 39.6 9.6 15.2 10.8 20.4 10.8 56v39.6l29.6 23.6c16 12.8 32 23.6 35.2 23.6s17.6-8.4 32.4-19.2c14.4-10.4 29.6-20.4 33.2-22.8 4-2 24-15.6 44.4-29.6 78-54 146.8-99.2 161.6-106.4 32.4-15.2 80.8-6.8 108.8 19.2 30.8 28.4 36.4 56.4 36.8 176.4v95.2l16.4 50.8c49.6 152 46.4 144.8 69.6 152 6.8 2 20.4 6.8 30.8 10l19.2 6 18.4-15.6c19.6-17.2 28-19.2 45.2-10 13.2 6.4 16.4 13.2 16.4 32 0 11.2-4.8 18-27.6 41.6-22 22.8-30 28.4-39.2 28-6 0-33.6-8-61.2-17.6zM656 237.2c0-52-1.6-78.4-5.2-85.2-6.4-13.2-22.8-22-35.2-18.8-8.4 2-82 48.4-87.6 54.8-1.2 1.6-4.8 3.6-8 5.2s-24.8 16-48 32c-52 36.4-53.6 41.6-14 50 15.6 3.2 60.4 12.4 100 20.8s78 15.2 85.2 15.6l12.8 0.4v-74.8zM177.6 208c9.6-3.6 14.8-16 6.8-16-6.8 0-40.4-32.8-40.4-39.6 0-7.6 7.6-16.4 14-16.4 2.4 0 14.4 7.2 26 16s24 16 26.8 16c8 0 6.4-26-2.4-43.2-10-19.2-26.8-28.8-51.2-28.8-57.6 0-73.6 82.8-21.2 108.8 16 8 26.8 8.8 41.6 3.2z" />
<glyph unicode="&#xe614;" d="M789.2 940.8c-4.8-10.4-15.6-31.2-24.4-46.8-8.4-15.2-24.8-46-36.8-68-11.6-22-22.4-41.6-24-44-1.6-2-15.2-27.2-30-56-14.8-28.4-28.4-53.6-30-56-1.6-2-12-21.2-22.8-42-11.2-20.8-25.2-46.8-31.2-57.6-14-24.8-51.6-95.6-80.4-150.4-6.4-12-12.4-22.8-13.6-24s-7.2-12.8-14-26c-6.4-13.2-12.8-24.8-14-26s-8.4-14.4-16-30c-7.6-15.2-14.8-28.8-16-30-1.6-1.6-16.8-29.6-29.6-54.8-4.8-9.6-14-11.6-25.6-5.6-16.4 8.8-76 28.4-86 28.4-9.2 0-18.8-3.2-48.8-16.8-6.4-2.8-8.4-8-9.2-26-1.6-24.8-8-38.4-16.4-33.6-4.4 2.8-24-1.6-34.4-8-2-1.6-10.4-4-18-5.6s-15.6-4.4-18-6c-2-1.6-10.4-4.4-18-6s-15.6-4.4-18-6c-2-1.6-8.8-4-14.4-5.2-5.6-1.6-17.2-5.6-26-9.6-8.4-3.6-16.4-6.8-17.6-7.2-6.8-1.2-41.2-20.8-46.4-26.4-16.8-18.8 15.6-34 80.4-37.6 40.4-2.4 89.6-10 92-14 0.8-1.6-6.4-11.2-16-21.6-19.6-20.4-22.4-31.6-9.6-38.4 10-5.6 112.8-2.8 153.6 4 15.6 2.4 50.8 4.8 78.8 5.2 48.4 0.8 50.8 0.4 60.8-8.8 5.6-5.6 10.4-12.8 10.4-16.8 0-10.4 12.4-22 30.4-27.2 31.6-10 140.4 2 269.6 29.6 70.8 14.8 107.2 24 111.2 27.6 4.4 4.4-4.8 15.6-20 23.2-25.2 13.2-32.8 24.4-34.4 53.2-1.6 22.8-3.2 27.2-13.6 36-6.4 5.6-16.8 10-22.8 10s-12.4 1.6-14.4 3.6c-2.4 2-22 4.8-44 5.6-41.6 2-82 8.4-96.8 15.6-4.4 2.4-10.4 3.2-12.4 1.6-2.4-1.2-5.2-0.8-6.8 1.6-1.2 2-6.8 4-12 4s-10.4 1.6-11.6 3.6c-1.2 2-10.8 4.8-21.2 6.4-10.8 1.6-20.8 4-23.2 6-2 1.6-21.2 6.8-42 11.6s-41.6 11.6-45.6 14.8c-7.6 5.6-7.6 5.6 0.4 20.4 14.4 26 34 62.4 44.8 83.2 5.6 11.2 11.2 20.8 12.4 22s7.2 11.6 13.2 23.2c6 11.2 15.6 30.4 21.6 42 6 11.2 12 21.6 13.2 22.8s10 17.2 19.6 36c33.6 65.6 38.4 74 40.4 76s16.4 29.2 46.8 88c6 12 12 22.8 13.2 24s6.8 11.2 12.4 22c13.6 25.6 39.6 74.8 52.4 98 21.6 39.2 41.2 75.6 59.2 110 10.4 20 23.6 44.4 29.6 54.8 5.6 10.4 10.4 20.8 10.4 22.8 0 4.4-30 20.4-37.6 20.4-2.4 0-8.4-8.4-13.2-19.2zM297.6 212.4c1.6-2 10-4.8 19.2-6.4s19.6-4.4 23.2-6.4c3.2-1.6 13.6-4.8 23.2-7.2 42.4-10.8 51.2-13.2 58.8-16.4 13.6-6 27.6-9.6 32.8-8.8 2.4 0.8 5.6-0.8 7.2-3.2 1.2-2 6.8-4 12-4s10.4-1.6 11.6-3.6c1.2-1.6 9.2-4.4 17.6-6 8.8-1.2 22-4.8 29.6-8.4 12.8-5.2 14.4-8 17.2-24.4 3.2-21.6 1.2-24.4-11.2-18.4-14.8 7.2-63.2 28.8-64.8 28.8-0.8 0-13.6 5.6-28.8 12.4-14.8 6.8-32.8 14.8-40 18-6.8 3.2-13.6 5.6-14.8 5.6s-12.4 4.8-25.2 10.4c-28.4 12.8-42 18.8-64.4 28-19.6 8-25.2 13.6-13.2 13.6 4.4 0 8.8-1.6 10-3.6zM254 181.2c-8.8-20.8-1.6-25.2 13.6-8.8l12.4 13.6-6-18c-7.2-20.8-5.2-31.6 4-24 3.2 2.8 6 7.2 6 9.6 0 7.2 22.8 27.6 25.6 23.2 1.2-2-1.2-8.4-5.6-14s-8-15.6-8-22.4c0-10-1.6-12.4-8.8-12.4-6.4-0.4-3.2-3.2 10.8-9.6 12-6 21.6-8 23.6-6 2.4 2 6.4 3.6 9.2 3.6 6.4 0 18.8 12 22.4 21.2 1.2 3.6 4.4 6.8 6.8 6.8 5.2 0 5.2-6.8 0-8.8-2-0.4-4.4-6.4-4.8-12.4-0.4-6.4-3.2-13.2-6-15.6-8.8-7.2-6-10 12.8-12.8 10-1.6 22.8-5.6 29.2-8.8 6-2.8 14-5.6 17.6-5.6s7.6-1.6 9.2-3.6c1.2-2 7.6-4.8 14-6.4 6.8-1.6 12-4.4 12-6.4s2-3.6 4.4-3.6c7.2 0 40-28 37.6-32-4-6.4 10.8-8 21.2-2 18 9.6 32 24.4 41.2 42.8 4.8 9.6 12.4 21.2 16.4 25.6 6 6.8 6.8 10.4 3.6 16-2 4.4-4.8 12.4-6 18.4-1.6 7.6-7.6 12.8-20.4 19.2-17.2 8.4-26.4 16-19.2 16 4.4 0 58-16 65.2-20 3.6-1.6 14.4-4.4 24-6 10-1.6 20.4-4.8 22.8-6.8 2.8-2.4 27.2-5.6 54-7.2 52.4-3.6 84.8-9.2 93.6-16.4 3.2-2.4 5.6-11.2 5.6-19.6 0-20.8 10.4-38.8 30.4-53.2 9.6-6.8 17.6-13.6 17.6-15.2 0-7.6-33.2-20.8-70-27.6-10.8-2-33.6-6.4-50-10-122-25.2-210.4-33.6-231.2-22.4-9.2 4.8-12 22-4.8 26.4 6.8 4 4.4 28.4-2.8 34.8-13.2 10.8-32.8 16.4-50.4 13.6-27.6-4-79.6-13.6-97.6-18-40-10-52.8-12-83.2-12.4-50.4 0-52.8 6.8-17.6 45.2 13.2 14.8 23.2 28.4 21.6 30.8-3.2 4.8 13.6 5.2 21.6 0.4 4.4-2.8 4.4-5.2-1.2-12.8-10-14.4-8.4-28.8 4.4-34.4 12.8-6.4 31.6-6.8 35.2-1.2 1.2 2.4 9.2 4.4 17.2 4.8s0.4 1.6-17.2 2.8c-30.8 2.4-32 2.8-33.2 12.8-0.8 7.6 2.8 14 16 26l17.6 16-42.8-1.6c-23.6-1.2-49.6-0.4-57.6 0.8-13.2 2.8-14.4 4-12.4 12.8 2 6.8 0.8 9.6-3.6 9.6-3.2 0-6-1.6-6-3.6 0-4-33.6-12.4-61.2-15.2-22-2.4-31.2 2.8-22.8 12.8 2.8 3.2 4 7.2 3.2 8.4-1.2 1.2-6-3.2-10.8-9.6-8-11.6-8-12-0.4-18.8 5.2-4.8 11.2-6.4 18.8-4.8 56.4 11.6 56 11.6 81.2 5.2 13.6-3.6 29.2-6.4 35.2-6.4 6.4 0 8.8-1.6 6.4-3.6-5.2-5.2-148.4-14-170.8-10.8-24.8 4-30.8 11.6-18.4 24.8 4.8 5.2 14.8 12.8 21.2 16.4 40.8 21.6 57.2 29.2 63.2 29.2 3.6 0 7.6 1.6 9.2 3.6 1.2 2 8 5.2 14.8 6.8 7.2 1.2 15.6 4 19.2 6 6.8 3.6 20.8 8.8 24.8 9.2 1.2 0.4 4 1.6 5.6 3.6 4.4 4.4 13.6 3.2 13.6-1.6 0-4.4 14.8-18 29.6-26.4 14.8-8.8 15.2-5.6 0.4 7.2-16.8 14.8-17.2 19.2-3.6 35.2s15.2 15.6 7.6-2.4zM675.2 422.8c-4.8-9.6 2.4-56.8 10.8-68.4 3.2-4.4 8.8-12.4 12.4-17.2s8-19.2 10-32c2-12.8 6.8-40.4 10-61.2 3.6-20.8 7.2-46 8.4-56s3.6-19.6 5.6-21.6c2-2.4 3.6-9.2 3.6-15.2v-11.2l73.2 0.4c44.4 0 69.6 1.6 64.8 3.6-4.4 2-36.4 3.6-70.8 3.6-62.8 0.4-63.2 0.4-63.2 9.6 0 4.8-1.2 12.8-2.8 18-2.4 9.2-2 9.2 17.2 6.8 10.8-1.6 21.6-4.4 23.6-6 2.4-1.6 14-4.4 26-6s24.4-4.4 28-6.4c3.2-1.6 17.2-5.2 31.2-8 16.4-3.2 24.8-6.4 24.8-10.4 0-4.4 6-5.2 27.2-4.4l26.8 1.2 5.2 36c4.8 35.6 10 64.4 14.8 88 1.2 6.8 3.2 16 4.4 21.2 0.8 4.8 4 8.8 7.2 8.8 7.6 0 42.4 31.6 42.4 38.4 0 3.2 2 5.6 4 5.6 2.4 0 4 8 4 18s-1.6 18-4 18c-2 0-4 2-4 4.8 0 2.4-2.8 8-6.8 12-3.6 4-7.6 13.6-8.8 21.2l-2.4 14.4-159.2 0.8c-150.4 0.8-160 0.4-163.6-6.4zM812 408.4c20.8-2.4 44.4-5.6 52-6.4 7.6-1.2 22.4-3.2 33.2-4.4 10.4-1.6 18.8-4.4 18.8-6.8 0-2.8-17.6-3.2-50.8-1.6-28.4 1.6-80.4 4-116 5.6l-65.2 2.4v10.8c0 6 0.8 11.6 2 12.4 1.6 2 40.8-2 126-12zM710.4 347.6c15.6-17.6 42.4-30.4 101.6-48 26-8 104.8-6.8 129.2 1.6 22 7.6 26.8 8.4 26.8 3.2 0-4.8-20.8-15.2-42-21.2s-85.6-6-117.6 0c-35.6 7.2-70.8 24.4-95.2 46.4-11.6 10.4-21.2 20.8-21.2 22.8 0 6.4 10.8 3.6 18.4-4.8z" />
<glyph unicode="&#xe973;" d="M384 224c0 151.234 95.874 280.486 230.032 330.2 16.28 36.538 25.968 77.164 25.968 117.8 0 159.058 0 288-192 288s-192-128.942-192-288c0-99.060 57.502-198.104 128-237.832v-52.78c-217.102-17.748-384-124.42-384-253.388h397.306c-8.664 30.53-13.306 62.732-13.306 96zM736 512c-159.058 0-288-128.942-288-288s128.942-288 288-288c159.056 0 288 128.942 288 288s-128.942 288-288 288zM896 192h-128v-128h-64v128h-128v64h128v128h64v-128h128v-64z" />
<glyph unicode="&#xe975;" d="M960 352l-288-288-96 96-64-64 160-160 352 352zM448 192h320v115.128c-67.22 39.2-156.308 66.11-256 74.26v52.78c70.498 39.728 128 138.772 128 237.832 0 159.058 0 288-192 288s-192-128.942-192-288c0-99.060 57.502-198.104 128-237.832v-52.78c-217.102-17.748-384-124.42-384-253.388h448v64z" />
<glyph unicode="&#xe9b4;" d="M960 960l-448-128-448 128c0 0-4.5-51.698 0-128l448-140.090 448 140.090c4.498 76.302 0 128 0 128zM72.19 764.894c23.986-250.696 113.49-672.234 439.81-828.894 326.32 156.66 415.824 578.198 439.81 828.894l-439.81-165.358-439.81 165.358z" />
<glyph unicode="&#xe9bd;" d="M64 768h896v-192h-896zM64 512h896v-192h-896zM64 256h896v-192h-896z" />
<glyph unicode="&#xea04;" d="M416 0h160c52.934 0 96 43.066 96 96 0 17.104-4.494 33.176-12.368 47.098 26.664 17.076 44.368 46.958 44.368 80.902 0 24.564-9.276 47.004-24.504 64 15.228 16.996 24.504 39.436 24.504 64 0 11.214-1.934 21.986-5.484 32h229.484c52.934 0 96 43.066 96 96s-43.066 96-96 96h-394.676l93.836 176.018c8.4 14.536 12.84 31.126 12.84 47.982 0 52.934-43.066 96-96 96-26.368 0-50.954-10.472-69.226-29.49-0.238-0.248-0.47-0.496-0.7-0.75l-218.074-239.17v45.41c0 17.672-14.326 32-32 32h-192c-17.674 0-32-14.328-32-32v-640c0-17.674 14.326-32 32-32h192c17.674 0 32 14.326 32 32v44.222l145.69-72.844c4.444-2.222 9.342-3.378 14.31-3.378zM160 64c-17.674 0-32 14.326-32 32s14.326 32 32 32 32-14.326 32-32-14.326-32-32-32zM423.556 64l-167.556 83.778v383.824l265.168 290.818c6.066 6.18 14.162 9.58 22.832 9.58 17.644 0 32-14.356 32-32 0-5.46-1.308-10.612-3.894-15.324-0.324-0.53-0.632-1.070-0.926-1.622l-119.418-224c-5.288-9.92-4.986-21.884 0.8-31.52 5.784-9.638 16.198-15.534 27.438-15.534h448c17.644 0 32-14.356 32-32s-14.356-32-32-32h-320c-17.672 0-32-14.326-32-32s14.328-32 32-32c17.644 0 32-14.356 32-32s-14.356-32-32-32c-17.674 0-32-14.326-32-32s14.326-32 32-32c17.644 0 32-14.356 32-32s-14.356-32-32-32h-32c-17.674 0-32-14.326-32-32s14.326-32 32-32c17.644 0 32-14.356 32-32s-14.356-32-32-32h-152.444z" />
</font>
</defs>
</svg>
